<svg width="261" height="49" viewBox="0 0 261 49" fill="none" xmlns="http://www.w3.org/2000/svg">
<path fill-rule="evenodd" clip-rule="evenodd" d="M48.3166 6.63538C48.3166 9.90817 40.3697 12.5613 30.5667 12.5613C20.7638 12.5613 12.8169 9.90817 12.8169 6.63538C12.8169 3.36259 20.7638 0.709473 30.5667 0.709473C40.3697 0.709473 48.3166 3.36259 48.3166 6.63538ZM60.1499 38.833C60.1499 34.7993 52.9076 31.3306 42.5277 29.7968L42.2587 29.8514C38.7578 30.5416 34.782 30.9318 30.5668 30.9318C26.2431 30.9318 22.1713 30.5211 18.6059 29.7968C8.22593 31.3306 0.983673 34.7993 0.983673 38.833C0.983673 44.2875 14.2284 48.7095 30.5668 48.7095C46.9052 48.7095 60.1499 44.2875 60.1499 38.833ZM54.2332 21.0552C54.2332 17.5648 47.4552 14.6034 38.0539 13.5572L37.8114 13.5963C35.574 13.9478 33.1285 14.1414 30.5668 14.1414C27.912 14.1414 25.3823 13.9337 23.0796 13.5575C13.6783 14.6032 6.90029 17.565 6.90029 21.0552C6.90029 25.4189 17.4961 28.9565 30.5668 28.9565C43.6374 28.9565 54.2332 25.4189 54.2332 21.0552ZM83.53 7.58838V40.8629H97.0249C99.5752 40.8629 101.691 40.4675 103.374 39.6768C105.056 38.8861 106.315 37.8084 107.15 36.4436C107.986 35.068 108.404 33.5191 108.404 31.7969C108.404 30.1072 108.056 28.6666 107.362 27.4751C106.667 26.2836 105.772 25.363 104.676 24.7131C103.591 24.0523 102.457 23.6895 101.274 23.6245V23.2995C102.359 23.0396 103.341 22.6117 104.22 22.016C105.099 21.4203 105.799 20.6458 106.32 19.6926C106.841 18.7286 107.101 17.5697 107.101 16.2157C107.101 14.5693 106.7 13.0962 105.897 11.7964C105.105 10.4967 103.905 9.47307 102.299 8.72569C100.704 7.96748 98.7016 7.58838 96.2924 7.58838H83.53ZM96.0645 35.8262H89.5694V26.0778H96.2273C97.4753 26.0778 98.5497 26.3107 99.4504 26.7765C100.351 27.2314 101.046 27.8596 101.534 28.6612C102.022 29.4519 102.267 30.34 102.267 31.3257C102.267 32.6472 101.778 33.7303 100.802 34.5752C99.8357 35.4092 98.2567 35.8262 96.0645 35.8262ZM95.5436 21.7398H89.5694V12.5601H95.6738C97.4536 12.5601 98.7939 12.9771 99.6946 13.8111C100.606 14.6451 101.062 15.7066 101.062 16.9956C101.062 17.9704 100.818 18.8153 100.329 19.5302C99.852 20.2342 99.1954 20.7812 98.3598 21.1711C97.5241 21.5502 96.5854 21.7398 95.5436 21.7398ZM114.477 40.5217C115.747 41.0849 117.174 41.3666 118.759 41.3666C120.061 41.3666 121.195 41.1878 122.161 40.8304C123.138 40.4621 123.946 39.9801 124.586 39.3844C125.237 38.7778 125.742 38.1279 126.1 37.4347H126.296V40.8629H131.961V24.1606C131.961 22.5034 131.657 21.1224 131.049 20.0176C130.452 18.9128 129.66 18.0408 128.672 17.4018C127.685 16.7519 126.594 16.2861 125.4 16.0045C124.207 15.7229 123.007 15.5821 121.803 15.5821C120.055 15.5821 118.46 15.842 117.017 16.3619C115.573 16.871 114.353 17.6401 113.354 18.6691C112.356 19.6872 111.639 20.9545 111.205 22.4709L116.708 23.2508C117.001 22.3951 117.565 21.6531 118.4 21.0249C119.247 20.3967 120.392 20.0826 121.835 20.0826C123.203 20.0826 124.25 20.4183 124.977 21.0899C125.704 21.7615 126.068 22.7092 126.068 23.9332V24.0307C126.068 24.5939 125.856 25.0109 125.433 25.2817C125.02 25.5417 124.358 25.7366 123.447 25.8666C122.535 25.9858 121.347 26.1212 119.882 26.2728C118.666 26.4028 117.489 26.614 116.349 26.9064C115.221 27.1881 114.206 27.6051 113.305 28.1575C112.405 28.7099 111.694 29.4464 111.173 30.3671C110.652 31.2878 110.391 32.4522 110.391 33.8603C110.391 35.4959 110.755 36.8715 111.482 37.9871C112.22 39.1028 113.218 39.9476 114.477 40.5217ZM123.365 36.3461C122.497 36.8119 121.472 37.0448 120.289 37.0448C119.062 37.0448 118.053 36.7686 117.261 36.2162C116.469 35.6638 116.073 34.846 116.073 33.7628C116.073 33.0046 116.273 32.3872 116.675 31.9106C117.076 31.4232 117.625 31.0441 118.319 30.7733C119.014 30.5025 119.8 30.3076 120.679 30.1884C121.07 30.1342 121.531 30.0693 122.063 29.9934C122.595 29.9176 123.132 29.831 123.675 29.7335C124.217 29.636 124.706 29.5223 125.14 29.3923C125.585 29.2623 125.899 29.1215 126.084 28.9699V31.9106C126.084 32.8313 125.845 33.6816 125.368 34.4615C124.901 35.2413 124.234 35.8696 123.365 36.3461ZM141.945 7.58838V40.8629H136.052V7.58838H141.945ZM149.085 40.5217C150.355 41.0849 151.782 41.3666 153.366 41.3666C154.669 41.3666 155.803 41.1878 156.769 40.8304C157.745 40.4621 158.554 39.9801 159.194 39.3844C159.845 38.7778 160.35 38.1279 160.708 37.4347H160.903V40.8629H166.568V24.1606C166.568 22.5034 166.264 21.1224 165.657 20.0176C165.06 18.9128 164.268 18.0408 163.28 17.4018C162.292 16.7519 161.202 16.2861 160.008 16.0045C158.814 15.7229 157.615 15.5821 156.41 15.5821C154.663 15.5821 153.068 15.842 151.625 16.3619C150.181 16.871 148.96 17.6401 147.962 18.6691C146.963 19.6872 146.247 20.9545 145.813 22.4709L151.315 23.2508C151.608 22.3951 152.173 21.6531 153.008 21.0249C153.855 20.3967 155 20.0826 156.443 20.0826C157.81 20.0826 158.858 20.4183 159.585 21.0899C160.312 21.7615 160.675 22.7092 160.675 23.9332V24.0307C160.675 24.5939 160.464 25.0109 160.041 25.2817C159.628 25.5417 158.966 25.7366 158.055 25.8666C157.143 25.9858 155.955 26.1212 154.49 26.2728C153.274 26.4028 152.097 26.614 150.957 26.9064C149.829 27.1881 148.814 27.6051 147.913 28.1575C147.012 28.7099 146.301 29.4464 145.781 30.3671C145.26 31.2878 144.999 32.4522 144.999 33.8603C144.999 35.4959 145.363 36.8715 146.09 37.9871C146.828 39.1028 147.826 39.9476 149.085 40.5217ZM157.973 36.3461C157.105 36.8119 156.079 37.0448 154.897 37.0448C153.67 37.0448 152.661 36.7686 151.869 36.2162C151.077 35.6638 150.68 34.846 150.68 33.7628C150.68 33.0046 150.881 32.3872 151.283 31.9106C151.684 31.4232 152.232 31.0441 152.927 30.7733C153.621 30.5025 154.408 30.3076 155.287 30.1884C155.678 30.1342 156.139 30.0693 156.671 29.9934C157.203 29.9176 157.74 29.831 158.283 29.7335C158.825 29.636 159.313 29.5223 159.748 29.3923C160.193 29.2623 160.507 29.1215 160.692 28.9699V31.9106C160.692 32.8313 160.453 33.6816 159.975 34.4615C159.509 35.2413 158.841 35.8696 157.973 36.3461ZM176.553 26.2403V40.8629H170.66V15.907H176.292V20.1476H176.585C177.161 18.7503 178.078 17.6401 179.337 16.8169C180.606 15.9937 182.174 15.5821 184.041 15.5821C185.767 15.5821 187.27 15.9503 188.55 16.6869C189.842 17.4234 190.84 18.4903 191.546 19.8876C192.262 21.2849 192.614 22.98 192.604 24.973V40.8629H186.711V25.8829C186.711 24.2148 186.277 22.9096 185.408 21.9673C184.551 21.0249 183.363 20.5537 181.843 20.5537C180.812 20.5537 179.895 20.7812 179.092 21.2361C178.3 21.6802 177.676 22.3247 177.22 23.1696C176.775 24.0144 176.553 25.038 176.553 26.2403ZM201.237 39.7093C203.028 40.8033 205.171 41.3503 207.667 41.3503C209.762 41.3503 211.585 40.9712 213.137 40.213C214.689 39.444 215.915 38.3825 216.816 37.0285C217.716 35.6638 218.237 34.0986 218.378 32.3331H212.746C212.572 33.2321 212.252 33.9957 211.786 34.6239C211.319 35.2522 210.738 35.7342 210.044 36.0699C209.36 36.3949 208.584 36.5574 207.716 36.5574C206.49 36.5574 205.421 36.2324 204.509 35.5825C203.608 34.9218 202.908 33.9849 202.409 32.7717C201.91 31.5478 201.66 30.0855 201.66 28.385C201.66 26.7061 201.91 25.2655 202.409 24.0632C202.919 22.8609 203.63 21.9402 204.542 21.3011C205.453 20.6512 206.511 20.3263 207.716 20.3263C209.138 20.3263 210.272 20.7325 211.118 21.5448C211.976 22.3464 212.518 23.3483 212.746 24.5506H218.378C218.248 22.7526 217.716 21.182 216.783 19.8389C215.85 18.4849 214.596 17.4397 213.023 16.7031C211.46 15.9558 209.664 15.5821 207.635 15.5821C205.193 15.5821 203.077 16.1291 201.286 17.223C199.506 18.3062 198.128 19.8226 197.151 21.7723C196.174 23.7111 195.686 25.9479 195.686 28.4824C195.686 31.0062 196.164 33.2375 197.119 35.1763C198.085 37.1044 199.457 38.6154 201.237 39.7093ZM232.453 41.3503C229.946 41.3503 227.781 40.8304 225.958 39.7906C224.146 38.7399 222.751 37.256 221.774 35.3388C220.798 33.4108 220.309 31.1416 220.309 28.5312C220.309 25.9641 220.798 23.7111 221.774 21.7723C222.762 19.8226 224.14 18.3062 225.909 17.223C227.678 16.1291 229.756 15.5821 232.144 15.5821C233.685 15.5821 235.139 15.8312 236.506 16.3294C237.885 16.8169 239.1 17.5751 240.153 18.6041C241.216 19.6331 242.052 20.9437 242.66 22.5359C243.267 24.1173 243.571 26.002 243.571 28.19V29.9934H226.154C226.172 31.3825 226.437 32.5794 226.951 33.5841C227.483 34.6131 228.226 35.4038 229.181 35.9562C230.136 36.4978 231.254 36.7686 232.534 36.7686C233.392 36.7686 234.168 36.6494 234.862 36.4111C235.557 36.162 236.159 35.7992 236.669 35.3226C237.179 34.846 237.565 34.2557 237.825 33.5516L243.327 34.169C242.98 35.6204 242.318 36.8877 241.341 37.9709C240.375 39.0432 239.138 39.8772 237.63 40.473C236.121 41.0579 234.396 41.3503 232.453 41.3503ZM226.918 23.3158C226.473 24.1469 226.222 25.0514 226.165 26.0291H237.923C237.912 24.9026 237.668 23.9007 237.19 23.0233C236.713 22.1352 236.045 21.4365 235.188 20.9274C234.341 20.4183 233.354 20.1638 232.225 20.1638C231.021 20.1638 229.962 20.4563 229.051 21.0412C228.139 21.6152 227.428 22.3734 226.918 23.3158ZM252.437 15.907H246.723V40.8629H252.616V26.1916C252.616 25.1301 252.86 24.1931 253.348 23.3808C253.837 22.5684 254.504 21.9348 255.351 21.4798C256.208 21.0141 257.174 20.7812 258.248 20.7812C258.747 20.7812 259.263 20.8191 259.795 20.8949C260.337 20.9599 260.733 21.0357 260.983 21.1224V15.712C260.712 15.6579 260.37 15.62 259.958 15.5983C259.556 15.5658 259.192 15.5496 258.867 15.5496C257.434 15.5496 256.159 15.9449 255.041 16.7356C253.934 17.5155 253.153 18.6257 252.697 20.0663H252.437V15.907Z" fill="white"/>
</svg>
