<svg width="1001" height="185" viewBox="0 0 1001 185" fill="none" xmlns="http://www.w3.org/2000/svg">
<path fill-rule="evenodd" clip-rule="evenodd" d="M181.861 23.4254C181.861 35.9711 151.398 46.1414 113.82 46.1414C76.2421 46.1414 45.7791 35.9711 45.7791 23.4254C45.7791 10.8798 76.2421 0.709473 113.82 0.709473C151.398 0.709473 181.861 10.8798 181.861 23.4254ZM227.222 146.849C227.222 131.387 199.46 118.091 159.67 112.211L158.64 112.42C145.219 115.066 129.979 116.562 113.82 116.562C97.2463 116.562 81.6377 114.988 67.9702 112.211C28.1805 118.091 0.418457 131.387 0.418457 146.849C0.418457 167.759 51.1898 184.709 113.82 184.709C176.451 184.709 227.222 167.759 227.222 146.849ZM204.542 78.7016C204.542 65.3215 178.559 53.9696 142.521 49.959L141.591 50.1091C133.015 51.4565 123.64 52.1986 113.82 52.1986C103.644 52.1986 93.9464 51.4024 85.1194 49.9601C49.0811 53.9686 23.0988 65.3225 23.0988 78.7016C23.0988 95.4288 63.7161 108.99 113.82 108.99C163.924 108.99 204.542 95.4288 204.542 78.7016ZM320.182 27.0787V154.631H371.912C381.689 154.631 389.801 153.116 396.249 150.084C402.697 147.053 407.523 142.922 410.726 137.69C413.929 132.417 415.531 126.48 415.531 119.878C415.531 113.401 414.2 107.878 411.537 103.311C408.875 98.7438 405.443 95.2146 401.241 92.7233C397.081 90.1905 392.734 88.7996 388.199 88.5504V87.3048C392.359 86.3083 396.124 84.6682 399.494 82.3846C402.863 80.1009 405.547 77.1322 407.543 73.4783C409.54 69.783 410.539 65.3402 410.539 60.1501C410.539 53.8389 408.999 48.1921 405.921 43.2096C402.884 38.2271 398.287 34.3033 392.13 31.4384C386.015 28.5319 378.34 27.0787 369.104 27.0787H320.182ZM368.231 135.324H343.333V97.9549H368.855C373.639 97.9549 377.757 98.8476 381.21 100.633C384.663 102.377 387.325 104.785 389.197 107.858C391.07 110.889 392.006 114.293 392.006 118.072C392.006 123.137 390.134 127.289 386.389 130.528C382.687 133.725 376.634 135.324 368.231 135.324ZM366.234 81.3258H343.333V46.1368H366.733C373.556 46.1368 378.693 47.7353 382.146 50.9325C385.641 54.1296 387.388 58.1986 387.388 63.1396C387.388 66.8765 386.452 70.1151 384.58 72.8555C382.749 75.5544 380.233 77.6512 377.029 79.1459C373.826 80.5992 370.228 81.3258 366.234 81.3258ZM438.813 153.323C443.681 155.482 449.151 156.562 455.225 156.562C460.217 156.562 464.564 155.877 468.267 154.506C472.011 153.095 475.11 151.247 477.564 148.963C480.061 146.638 481.995 144.147 483.368 141.49H484.117V154.631H505.832V90.6057C505.832 84.253 504.667 78.9591 502.338 74.724C500.05 70.4888 497.013 67.1464 493.227 64.6967C489.441 62.2054 485.261 60.42 480.685 59.3405C476.108 58.2609 471.512 57.7211 466.894 57.7211C460.196 57.7211 454.081 58.7176 448.548 60.7106C443.015 62.6621 438.335 65.6101 434.508 69.5546C430.68 73.4576 427.935 78.3155 426.271 84.1285L447.362 87.118C448.486 83.8378 450.649 80.9936 453.852 78.5854C457.097 76.1772 461.486 74.9731 467.019 74.9731C472.26 74.9731 476.275 76.2602 479.062 78.8345C481.849 81.4088 483.243 85.0419 483.243 89.7338V90.1075C483.243 92.2666 482.432 93.8651 480.809 94.9031C479.228 95.8996 476.691 96.647 473.196 97.1453C469.702 97.602 465.147 98.121 459.531 98.7023C454.871 99.2006 450.358 100.01 445.989 101.131C441.663 102.211 437.773 103.809 434.32 105.927C430.868 108.045 428.143 110.868 426.146 114.397C424.149 117.927 423.151 122.39 423.151 127.788C423.151 134.057 424.544 139.331 427.331 143.607C430.16 147.884 433.988 151.122 438.813 153.323ZM472.884 137.317C469.556 139.102 465.625 139.995 461.091 139.995C456.39 139.995 452.521 138.936 449.484 136.819C446.447 134.701 444.929 131.566 444.929 127.414C444.929 124.508 445.698 122.141 447.237 120.314C448.777 118.446 450.878 116.992 453.54 115.954C456.202 114.916 459.219 114.169 462.588 113.712C464.086 113.505 465.854 113.255 467.892 112.965C469.931 112.674 471.99 112.342 474.07 111.968C476.15 111.595 478.022 111.159 479.686 110.66C481.392 110.162 482.598 109.622 483.305 109.041V120.314C483.305 123.843 482.39 127.103 480.56 130.092C478.771 133.082 476.212 135.49 472.884 137.317ZM544.107 27.0787V154.631H521.517V27.0787H544.107ZM571.476 153.323C576.344 155.482 581.814 156.562 587.888 156.562C592.88 156.562 597.227 155.877 600.93 154.506C604.674 153.095 607.773 151.247 610.228 148.963C612.724 146.638 614.658 144.147 616.031 141.49H616.78V154.631H638.495V90.6057C638.495 84.253 637.331 78.9591 635.001 74.724C632.713 70.4888 629.676 67.1464 625.89 64.6967C622.105 62.2054 617.924 60.42 613.348 59.3405C608.772 58.2609 604.175 57.7211 599.557 57.7211C592.859 57.7211 586.744 58.7176 581.211 60.7106C575.678 62.6621 570.998 65.6101 567.171 69.5546C563.343 73.4576 560.598 78.3155 558.934 84.1285L580.025 87.118C581.149 83.8378 583.312 80.9936 586.515 78.5854C589.76 76.1772 594.149 74.9731 599.682 74.9731C604.923 74.9731 608.938 76.2602 611.725 78.8345C614.512 81.4088 615.906 85.0419 615.906 89.7338V90.1075C615.906 92.2666 615.095 93.8651 613.472 94.9031C611.892 95.8996 609.354 96.647 605.859 97.1453C602.365 97.602 597.81 98.121 592.194 98.7023C587.534 99.2006 583.021 100.01 578.653 101.131C574.326 102.211 570.436 103.809 566.984 105.927C563.531 108.045 560.806 110.868 558.809 114.397C556.812 117.927 555.814 122.39 555.814 127.788C555.814 134.057 557.207 139.331 559.995 143.607C562.823 147.884 566.651 151.122 571.476 153.323ZM605.547 137.317C602.219 139.102 598.288 139.995 593.754 139.995C589.053 139.995 585.184 138.936 582.147 136.819C579.11 134.701 577.592 131.566 577.592 127.414C577.592 124.508 578.361 122.141 579.901 120.314C581.44 118.446 583.541 116.992 586.203 115.954C588.866 114.916 591.882 114.169 595.251 113.712C596.749 113.505 598.517 113.255 600.555 112.965C602.594 112.674 604.653 112.342 606.733 111.968C608.813 111.595 610.685 111.159 612.349 110.66C614.055 110.162 615.261 109.622 615.968 109.041V120.314C615.968 123.843 615.053 127.103 613.223 130.092C611.434 133.082 608.876 135.49 605.547 137.317ZM676.77 98.5777V154.631H654.18V58.9668H675.771V75.2222H676.895C679.099 69.866 682.615 65.6101 687.44 62.4545C692.308 59.2989 698.319 57.7211 705.474 57.7211C712.089 57.7211 717.851 59.1329 722.759 61.9563C727.71 64.7797 731.537 68.8695 734.241 74.2257C736.987 79.5819 738.339 86.0799 738.297 93.7198V154.631H715.708V97.2076C715.708 90.8133 714.044 85.8101 710.716 82.1977C707.43 78.5854 702.874 76.7792 697.05 76.7792C693.098 76.7792 689.583 77.6512 686.504 79.3951C683.467 81.0974 681.075 83.5679 679.328 86.8066C677.622 90.0452 676.77 93.9689 676.77 98.5777ZM771.392 150.209C778.257 154.403 786.473 156.499 796.041 156.499C804.07 156.499 811.059 155.046 817.008 152.14C822.957 149.192 827.657 145.123 831.11 139.933C834.563 134.701 836.56 128.701 837.101 121.933H815.51C814.844 125.38 813.617 128.307 811.828 130.715C810.04 133.123 807.814 134.971 805.151 136.258C802.531 137.504 799.556 138.126 796.228 138.126C791.527 138.126 787.43 136.881 783.935 134.39C780.482 131.857 777.799 128.265 775.885 123.615C773.972 118.923 773.015 113.318 773.015 106.799C773.015 100.363 773.972 94.8409 775.885 90.232C777.841 85.6232 780.565 82.0939 784.06 79.6442C787.554 77.1529 791.61 75.9073 796.228 75.9073C801.678 75.9073 806.025 77.4643 809.27 80.5784C812.556 83.651 814.636 87.4917 815.51 92.1005H837.101C836.602 85.208 834.563 79.1875 830.986 74.0389C827.408 68.8487 822.603 64.842 816.571 62.0186C810.58 59.1536 803.695 57.7211 795.916 57.7211C786.556 57.7211 778.444 59.818 771.58 64.0116C764.757 68.1637 759.474 73.9766 755.73 81.4504C751.986 88.8826 750.114 97.4567 750.114 107.173C750.114 116.847 751.944 125.4 755.605 132.833C759.307 140.223 764.57 146.015 771.392 150.209ZM891.054 156.499C881.444 156.499 873.144 154.506 866.155 150.52C859.208 146.493 853.862 140.805 850.118 133.455C846.374 126.065 844.502 117.366 844.502 107.359C844.502 97.519 846.374 88.8826 850.118 81.4504C853.904 73.9766 859.187 68.1637 865.968 64.0116C872.749 59.818 880.716 57.7211 889.868 57.7211C895.775 57.7211 901.35 58.6761 906.591 60.5861C911.875 62.4545 916.534 65.361 920.569 69.3055C924.646 73.25 927.849 78.274 930.179 84.3776C932.509 90.4396 933.674 97.6643 933.674 106.052V112.965H866.908C866.974 118.289 867.992 122.877 869.962 126.729C872 130.673 874.85 133.704 878.511 135.822C882.172 137.898 886.457 138.936 891.366 138.936C894.652 138.936 897.626 138.479 900.289 137.566C902.951 136.611 905.26 135.22 907.215 133.393C909.171 131.566 910.648 129.303 911.646 126.604L932.737 128.971C931.406 134.535 928.869 139.393 925.125 143.545C921.422 147.656 916.68 150.853 910.897 153.136C905.115 155.378 898.5 156.499 891.054 156.499ZM869.837 87.3671C868.13 90.5531 867.167 94.0201 866.95 97.7681H912.02C911.979 93.4499 911.043 89.6092 909.212 86.246C907.382 82.8413 904.823 80.1632 901.537 78.2117C898.292 76.2602 894.506 75.2845 890.18 75.2845C885.562 75.2845 881.506 76.4056 878.012 78.6477C874.517 80.8483 871.792 83.7548 869.837 87.3671ZM967.658 58.9668H945.755V154.631H968.344V98.3909C968.344 94.3218 969.28 90.7303 971.152 87.6162C973.024 84.5021 975.583 82.0732 978.828 80.3293C982.114 78.5439 985.817 77.6512 989.935 77.6512C991.849 77.6512 993.825 77.7965 995.863 78.0872C997.943 78.3363 999.462 78.6269 1000.42 78.9591V58.2194C999.378 58.0118 998.068 57.8665 996.487 57.7834C994.948 57.6589 993.554 57.5966 992.306 57.5966C986.815 57.5966 981.927 59.1121 977.642 62.1431C973.399 65.1326 970.404 69.3885 968.656 74.9108H967.658V58.9668Z" fill="black"/>
</svg>
