<svg width="400" height="326" viewBox="0 0 400 326" fill="none" xmlns="http://www.w3.org/2000/svg">
<path d="M319.999 40.7025C319.999 62.8477 266.273 80.7999 199.999 80.7999C133.725 80.7999 79.9993 62.8477 79.9993 40.7025C79.9993 18.5574 133.725 0.605225 199.999 0.605225C266.273 0.605225 319.999 18.5574 319.999 40.7025Z" fill="black"/>
<path d="M400 258.566C400 231.272 351.037 207.802 280.863 197.423L279.045 197.793C255.376 202.463 228.497 205.103 200 205.103C170.769 205.103 143.241 202.324 119.136 197.423C48.9617 207.802 -0.000488281 231.272 -0.000488281 258.566C-0.000488281 295.474 89.5419 325.395 200 325.395C310.457 325.395 400 295.474 400 258.566Z" fill="black"/>
<path d="M360 138.274C360 114.656 314.176 94.618 250.618 87.5387L248.978 87.8035C233.852 90.1819 217.318 91.4918 200 91.4918C182.052 91.4918 164.949 90.0864 149.381 87.5405C85.8229 94.6161 39.9995 114.658 39.9995 138.274C39.9995 167.8 111.634 191.737 200 191.737C288.365 191.737 360 167.8 360 138.274Z" fill="black"/>
</svg>
