<svg width="512" height="512" viewBox="0 0 512 512" fill="none" xmlns="http://www.w3.org/2000/svg">
<path d="M388.167 123.031C388.167 147.422 328.994 167.194 255.999 167.194C183.005 167.194 123.832 147.422 123.832 123.031C123.832 98.6406 183.005 78.8682 255.999 78.8682C328.994 78.8682 388.167 98.6406 388.167 123.031Z" fill="black"/>
<path d="M476.279 362.985C476.279 332.923 422.352 307.073 345.062 295.643L343.06 296.05C316.991 301.193 287.387 304.101 256 304.101C223.805 304.101 193.486 301.041 166.938 295.643C89.6474 307.073 35.7207 332.923 35.7207 362.985C35.7207 403.635 134.342 436.59 256 436.59C377.657 436.59 476.279 403.635 476.279 362.985Z" fill="black"/>
<path d="M432.223 230.496C432.223 204.483 381.753 182.413 311.75 174.616L309.944 174.908C293.284 177.527 275.075 178.97 256 178.97C236.232 178.97 217.395 177.422 200.249 174.618C130.246 182.411 79.7765 204.485 79.7765 230.496C79.7765 263.016 158.674 289.38 256 289.38C353.325 289.38 432.223 263.016 432.223 230.496Z" fill="black"/>
</svg>
